<?xml version="1.0" encoding="UTF-8" standalone="no"?>
<!-- Generator: Adobe Illustrator 15.0.2, SVG Export Plug-In . SVG Version: 6.00 Build 0)  -->

<svg
   xmlns:dc="http://purl.org/dc/elements/1.1/"
   xmlns:cc="http://creativecommons.org/ns#"
   xmlns:rdf="http://www.w3.org/1999/02/22-rdf-syntax-ns#"
   xmlns:svg="http://www.w3.org/2000/svg"
   xmlns="http://www.w3.org/2000/svg"
   xmlns:sodipodi="http://sodipodi.sourceforge.net/DTD/sodipodi-0.dtd"
   xmlns:inkscape="http://www.inkscape.org/namespaces/inkscape"
   version="1.1"
   id="Layer_1"
   x="0px"
   y="0px"
   width="113.38597"
   height="113.38599"
   viewBox="0 0 113.38597 113.386"
   enable-background="new 0 0 283.465 283.465"
   xml:space="preserve"
   inkscape:version="0.48.4 r9939"
   sodipodi:docname="mirror_orange_hex_2.svg"><metadata
     id="metadata4797"><rdf:RDF><cc:Work
         rdf:about=""><dc:format>image/svg+xml</dc:format><dc:type
           rdf:resource="http://purl.org/dc/dcmitype/StillImage" /><dc:title></dc:title></cc:Work></rdf:RDF></metadata><defs
     id="defs4795" /><sodipodi:namedview
     pagecolor="#ffffff"
     bordercolor="#666666"
     borderopacity="1"
     objecttolerance="10"
     gridtolerance="10"
     guidetolerance="10"
     inkscape:pageopacity="0"
     inkscape:pageshadow="2"
     inkscape:window-width="1366"
     inkscape:window-height="744"
     id="namedview4793"
     showgrid="false"
     inkscape:zoom="2.1060801"
     inkscape:cx="39.948234"
     inkscape:cy="-8.1206781"
     inkscape:window-x="0"
     inkscape:window-y="24"
     inkscape:window-maximized="1"
     inkscape:current-layer="Layer_1"
     fit-margin-top="0"
     fit-margin-left="0"
     fit-margin-right="0"
     fit-margin-bottom="0" /><path
     d="M 56.693001,0 C 25.432001,0 0,25.432001 0,56.691996 c 0,31.260007 25.432001,56.693994 56.693001,56.693994 31.260978,0 56.692969,-25.433987 56.692969,-56.693994 C 113.38597,25.432001 87.953979,0 56.693001,0 z"
     id="path4791"
     inkscape:connector-curvature="0"
     style="fill:#dd4814"
     sodipodi:nodetypes="sssss"
     inkscape:export-filename="/home/tribaal/Desktop/g5791_14.png"
     inkscape:export-xdpi="11.11"
     inkscape:export-ydpi="11.11" /><g
     id="g5791"
     transform="matrix(0.88992454,0.56218499,-0.5698707,0.87792233,39.008016,-47.742568)"
     inkscape:export-xdpi="11.11"
     inkscape:export-ydpi="11.11"><path
       transform="translate(-80.243861,-78.344598)"
       d="m 167.60995,144.58139 c 0,16.12736 -8.92845,29.20117 -19.94226,29.20117 -11.0138,0 -19.94226,-13.07381 -19.94226,-29.20117 0,-16.12736 8.92846,-29.20117 19.94226,-29.20117 11.01381,0 19.94226,13.07381 19.94226,29.20117 z"
       sodipodi:ry="29.201168"
       sodipodi:rx="19.942261"
       sodipodi:cy="144.58139"
       sodipodi:cx="147.66769"
       id="path5777"
       style="fill:#ffffff;fill-opacity:1"
       sodipodi:type="arc" /><path
       transform="translate(-81.905711,-81.193492)"
       d="m 162.38698,147.19289 c 0,12.84944 -5.84601,23.26597 -13.05744,23.26597 -7.21142,0 -13.05743,-10.41653 -13.05743,-23.26597 0,-12.84945 5.84601,-23.26598 13.05743,-23.26598 7.21143,0 13.05744,10.41653 13.05744,23.26598 z"
       sodipodi:ry="23.265972"
       sodipodi:rx="13.057433"
       sodipodi:cy="147.19289"
       sodipodi:cx="149.32954"
       id="path5779"
       style="fill:#dd4814;fill-opacity:1"
       sodipodi:type="arc" /><rect
       rx="3.3237102"
       ry="1.899263"
       y="93.538704"
       x="64.100121"
       height="19.467445"
       width="6.6474204"
       id="rect5781"
       style="fill:#ffffff;fill-opacity:1" /><path
       transform="translate(1.899263,-0.47481575)"
       inkscape:transform-center-y="-0.05303025"
       inkscape:transform-center-x="0.069577817"
       d="m 69.797914,53.179362 c -0.497436,-0.497436 3.420314,1.768975 3.310265,1.074155 -0.110048,-0.69482 -3.135691,2.671316 -2.816317,2.04451 0.319374,-0.626806 -0.62546,3.799555 0.0013,3.480181 0.626806,-0.319374 -3.509554,-2.156737 -2.814734,-2.046689 0.69482,0.110049 -3.80687,0.57928 -3.309433,1.076716 0.497436,0.497436 0.966667,-4.004253 1.076715,-3.309433 0.110049,0.69482 -1.727314,-3.441541 -2.046688,-2.814735 -0.319374,0.626806 4.106987,-0.318027 3.480181,0.0013 -0.626806,0.319373 2.73933,-2.706269 2.044511,-2.816317 -0.69482,-0.110049 1.57159,3.807701 1.074154,3.310265 z"
       inkscape:randomized="0"
       inkscape:rounded="-0.20213914"
       inkscape:flatsided="false"
       sodipodi:arg2="-0.15707958"
       sodipodi:arg1="-0.78539811"
       sodipodi:r2="5.2744656"
       sodipodi:r1="2.6859634"
       sodipodi:cy="55.078625"
       sodipodi:cx="67.898651"
       sodipodi:sides="5"
       id="path5785"
       style="fill:#ffffff;fill-opacity:1"
       sodipodi:type="star" /><path
       transform="translate(-7.5970519,-1.899263)"
       inkscape:transform-center-y="-0.27839706"
       inkscape:transform-center-x="-0.041438382"
       d="m 72.171991,67.898653 c 0.379971,-0.253314 -2.425836,-1.125111 -1.969539,-1.106705 0.456297,0.01841 -2.410612,0.661379 -2.052279,0.944474 0.358333,0.283096 0.320419,-2.654786 0.443918,-2.215134 0.123498,0.439652 -1.373928,-2.088251 -1.532437,-1.659974 -0.158509,0.428276 2.623866,-0.515637 2.243895,-0.262323 -0.37997,0.253314 1.561478,-1.951989 1.105181,-1.970395 -0.456297,-0.01841 1.301219,2.336105 0.942886,2.053009 -0.358333,-0.283095 2.338974,0.881856 2.215476,0.442204 -0.123498,-0.439652 -1.819669,1.959429 -1.66116,1.531153 0.158509,-0.428277 -0.115912,2.497005 0.264059,2.243691 z"
       inkscape:randomized="0"
       inkscape:rounded="-0.20213914"
       inkscape:flatsided="false"
       sodipodi:arg2="1.6111123"
       sodipodi:arg1="0.98279372"
       sodipodi:r2="1.7436062"
       sodipodi:r1="3.423945"
       sodipodi:cy="65.049759"
       sodipodi:cx="70.272728"
       sodipodi:sides="5"
       id="path5789"
       style="fill:#ffffff;fill-opacity:1"
       sodipodi:type="star" /></g></svg>